IKResults
version=1
nRows=5
nColumns=40
inDegrees=yes

Units are S.I. units (second, meters, Newtons, ...)
Angles are in degrees.

endheader
time	pelvis_tilt	pelvis_list	pelvis_rotation	pelvis_tx	pelvis_ty	pelvis_tz	hip_flexion_r	hip_adduction_r	hip_rotation_r	knee_angle_r	knee_angle_r_beta	ankle_angle_r	subtalar_angle_r	mtp_angle_r	hip_flexion_l	hip_adduction_l	hip_rotation_l	knee_angle_l	knee_angle_l_beta	ankle_angle_l	subtalar_angle_l	mtp_angle_l	lumbar_extension	lumbar_bending	lumbar_rotation	arm_flex_r	arm_add_r	arm_rot_r	elbow_flex_r	pro_sup_r	wrist_flex_r	wrist_dev_r	arm_flex_l	arm_add_l	arm_rot_l	elbow_flex_l	pro_sup_l	wrist_flex_l	wrist_dev_l
      0.78000000	     16.41839655	     -1.26267153	      3.35392360	      0.04968776	      0.95317539	     -1.45177528	    -18.30655637	      5.24599338	    -13.55098651	    -14.63831855	     -0.25548686	     10.22587782	     -3.15726056	     -3.06079137	     -0.06366911	      4.15799468	      3.61645400	    -50.87832241	     -0.88799424	      8.57662679	     17.96937224	      0.34006368	    -20.75899298	      1.57196020	     -1.26450147	     -8.22393096	    -14.27014659	     -2.92308421	     35.48744466	     89.95437384	      0.00000000	      0.00000000	     -1.23251194	      8.00639712	     11.56964072	     24.07350885	     89.95437384	      0.00000000	      0.00000000
      0.79000000	     17.02751659	     -0.71227543	      2.36009309	      0.06451239	      0.95304853	     -1.45033915	    -20.14392803	      4.54650743	    -12.32623999	    -14.38415905	     -0.25105094	     10.50815205	     -3.48611640	     -2.86296157	      0.02217945	      3.68535331	      5.23503528	    -48.43083471	     -0.84527753	      8.98598057	     17.92154033	      1.88759195	    -21.51406038	      0.65181274	     -0.40534588	     -7.90877702	    -14.48524612	     -3.16167496	     37.71762121	     89.95437384	      0.00000000	      0.00000000	     -1.92812814	      7.99867115	     11.75693938	     22.60915482	     89.95437384	      0.00000000	      0.00000000
      0.80000000	     16.87569216	     -0.50737872	      2.01596652	      0.07892836	      0.95118787	     -1.44970413	    -20.97329971	      4.31747872	    -11.88212715	    -14.39638128	     -0.25126425	     11.21677500	     -3.53214153	     -2.86674898	      1.40574352	      3.52780770	      6.01519293	    -46.53376517	     -0.81216742	      9.75065953	     17.88911634	      2.19114379	    -21.41991638	      0.27473971	     -0.07135113	     -7.60532941	    -14.82640127	     -3.04385568	     39.85404620	     89.95437384	      0.00000000	      0.00000000	     -2.60333051	      7.98249771	     11.79410454	     21.01297569	     89.95437384	      0.00000000	      0.00000000
      0.81000000	     17.04973798	     -0.12369845	      1.30845085	      0.09352112	      0.94970259	     -1.44886967	    -22.11589653	      3.75934938	    -11.18135258	    -14.52760565	     -0.25355455	     11.84190352	     -4.08715957	     -2.80112049	      2.06257067	      3.22891240	      7.39006215	    -44.03900660	     -0.76862566	     10.14202537	     17.69848931	      2.69643497	    -21.68242862	     -0.38716201	      0.51987377	     -7.23079538	    -15.08999433	     -3.16906458	     41.86205408	     89.95437384	      0.00000000	      0.00000000	     -3.26666779	      7.92604982	     12.08196298	     19.49925361	     89.95437384	      0.00000000	      0.00000000
      0.82000000	     16.63992266	     -0.14944675	      1.42385672	      0.10759041	      0.94692621	     -1.44857883	    -22.52313061	      3.89661304	    -11.24555612	    -14.75738096	     -0.25756489	     12.23124373	     -4.22365356	     -2.79849585	      3.83712234	      3.44695476	      8.00851380	    -42.12201336	     -0.73516782	     10.42095037	     17.39567449	      2.73335534	    -21.35819467	     -0.41730540	      0.25732102	     -6.54977104	    -15.21471208	     -3.16369873	     43.42022262	     89.95437384	      0.00000000	      0.00000000	     -4.33646794	      8.03237224	     12.00391420	     18.63275927	     89.95437384	      0.00000000	      0.00000000
